HIERARCHY
ROOT mixamorig:Hips
{
	OFFSET 0.000000 92.554863 4.552500
	CHANNELS 6 Xposition Yposition Zposition Xrotation Yrotation Zrotation
	JOINT mixamorig:Spine
	{
		OFFSET -0.000000 10.763863 1.243516
		CHANNELS 6 Xposition Yposition Zposition Xrotation Yrotation Zrotation
		JOINT mixamorig:Spine1
		{
			OFFSET -0.018927 13.061340 0.227481
			CHANNELS 3 Xrotation Yrotation Zrotation
			JOINT mixamorig:Spine2
			{
				OFFSET -0.021630 12.988235 -0.916687
				CHANNELS 3 Xrotation Yrotation Zrotation
				JOINT mixamorig:Neck
				{
					OFFSET -0.011927 24.670639 2.028102
					CHANNELS 6 Xposition Yposition Zposition Xrotation Yrotation Zrotation
					JOINT mixamorig:Head
					{
						OFFSET 0.000000 8.817322 6.102616
						CHANNELS 6 Xposition Yposition Zposition Xrotation Yrotation Zrotation
						JOINT mixamorig:HeadTop_End
						{
							OFFSET 0.000000 20.493942 -0.282504
							CHANNELS 6 Xposition Yposition Zposition Xrotation Yrotation Zrotation
							End Site
							{
								OFFSET 0.000000 20.495895 0.000000
							}
						}
					}
				}
				JOINT mixamorig:LeftShoulder
				{
					OFFSET 9.553568 16.065369 -5.227831
					CHANNELS 6 Xposition Yposition Zposition Xrotation Yrotation Zrotation
					JOINT mixamorig:LeftArm
					{
						OFFSET 17.892986 2.066071 -0.922930
						CHANNELS 3 Xrotation Yrotation Zrotation
						JOINT mixamorig:LeftForeArm
						{
							OFFSET 26.374779 -0.000107 -1.459064
							CHANNELS 3 Xrotation Yrotation Zrotation
							JOINT mixamorig:LeftHand
							{
								OFFSET 26.753433 0.000351 0.000018
								CHANNELS 3 Xrotation Yrotation Zrotation
								End Site
								{
									OFFSET 26.753433 0.000381 0.000018
								}
							}
						}
					}
				}
				JOINT mixamorig:RightShoulder
				{
					OFFSET -9.553568 16.065369 -5.227831
					CHANNELS 6 Xposition Yposition Zposition Xrotation Yrotation Zrotation
					JOINT mixamorig:RightArm
					{
						OFFSET -17.811882 2.066254 -0.922929
						CHANNELS 3 Xrotation Yrotation Zrotation
						JOINT mixamorig:RightForeArm
						{
							OFFSET -26.374771 -0.000290 -1.459066
							CHANNELS 3 Xrotation Yrotation Zrotation
							JOINT mixamorig:RightHand
							{
								OFFSET -26.753433 0.000351 0.000016
								CHANNELS 3 Xrotation Yrotation Zrotation
								JOINT mixamorig:RightHandIndex1
								{
									OFFSET -18.447754 1.479904 8.654251
									CHANNELS 6 Xposition Yposition Zposition Xrotation Yrotation Zrotation
									JOINT mixamorig:RightHandIndex2
									{
										OFFSET -7.514389 0.000000 0.000002
										CHANNELS 3 Xrotation Yrotation Zrotation
										JOINT mixamorig:RightHandIndex3
										{
											OFFSET -7.489372 0.000000 -0.000002
											CHANNELS 3 Xrotation Yrotation Zrotation
											JOINT mixamorig:RightHandIndex4
											{
												OFFSET -6.738792 -0.612457 0.206174
												CHANNELS 3 Xrotation Yrotation Zrotation
												End Site
												{
													OFFSET -6.738785 -0.612457 0.206174
												}
											}
										}
									}
								}
								JOINT mixamorig:RightHandPinky1
								{
									OFFSET -17.507767 -0.477722 -10.003080
									CHANNELS 6 Xposition Yposition Zposition Xrotation Yrotation Zrotation
									JOINT mixamorig:RightHandPinky2
									{
										OFFSET -7.044235 0.000000 0.000000
										CHANNELS 3 Xrotation Yrotation Zrotation
										JOINT mixamorig:RightHandPinky3
										{
											OFFSET -7.078896 0.000000 0.000000
											CHANNELS 3 Xrotation Yrotation Zrotation
											JOINT mixamorig:RightHandPinky4
											{
												OFFSET -7.092957 0.000000 0.000000
												CHANNELS 3 Xrotation Yrotation Zrotation
												End Site
												{
													OFFSET -7.092957 0.000000 0.000000
												}
											}
										}
									}
								}
								JOINT mixamorig:RightHandThumb1
								{
									OFFSET -2.492340 -4.446335 6.163477
									CHANNELS 6 Xposition Yposition Zposition Xrotation Yrotation Zrotation
									JOINT mixamorig:RightHandThumb2
									{
										OFFSET -6.602646 -4.313995 6.890454
										CHANNELS 3 Xrotation Yrotation Zrotation
										JOINT mixamorig:RightHandThumb3
										{
											OFFSET -6.784767 -2.966904 4.170526
											CHANNELS 3 Xrotation Yrotation Zrotation
											JOINT mixamorig:RightHandThumb4
											{
												OFFSET -7.130669 -2.033752 3.069632
												CHANNELS 3 Xrotation Yrotation Zrotation
												End Site
												{
													OFFSET -7.130661 -2.033768 3.069639
												}
											}
										}
									}
								}
							}
						}
					}
				}
			}
		}
	}
	JOINT mixamorig:LeftUpLeg
	{
		OFFSET 13.655973 -7.135239 0.129696
		CHANNELS 6 Xposition Yposition Zposition Xrotation Yrotation Zrotation
		JOINT mixamorig:LeftLeg
		{
			OFFSET 0.000027 -35.919132 1.481440
			CHANNELS 3 Xrotation Yrotation Zrotation
			JOINT mixamorig:LeftFoot
			{
				OFFSET 0.000000 -34.307392 -2.646744
				CHANNELS 3 Xrotation Yrotation Zrotation
				JOINT mixamorig:LeftToeBase
				{
					OFFSET -0.000001 -15.192882 14.911592
					CHANNELS 6 Xposition Yposition Zposition Xrotation Yrotation Zrotation
					JOINT mixamorig:LeftToe_End
					{
						OFFSET 0.000001 0.000000 16.883829
						CHANNELS 6 Xposition Yposition Zposition Xrotation Yrotation Zrotation
						End Site
						{
							OFFSET 0.000000 -0.000001 16.883827
						}
					}
				}
			}
		}
	}
	JOINT mixamorig:RightUpLeg
	{
		OFFSET -13.655973 -7.135239 0.129696
		CHANNELS 6 Xposition Yposition Zposition Xrotation Yrotation Zrotation
		JOINT mixamorig:RightLeg
		{
			OFFSET -0.000027 -35.919132 1.481440
			CHANNELS 3 Xrotation Yrotation Zrotation
			JOINT mixamorig:RightFoot
			{
				OFFSET 0.000001 -34.307392 -2.646745
				CHANNELS 3 Xrotation Yrotation Zrotation
				JOINT mixamorig:RightToeBase
				{
					OFFSET -0.000001 -15.192882 14.911592
					CHANNELS 6 Xposition Yposition Zposition Xrotation Yrotation Zrotation
					JOINT mixamorig:RightToe_End
					{
						OFFSET 0.000001 0.000000 16.883829
						CHANNELS 6 Xposition Yposition Zposition Xrotation Yrotation Zrotation
						End Site
						{
							OFFSET 0.000000 -0.000001 16.883827
						}
					}
				}
			}
		}
	}
}
MOTION
Frames: 4
Frame Time: 0.033333
0.054478 67.855484 -0.688895 8.885902 58.827777 -1.152330 0.000002 10.763857 1.243517 7.935491 6.143701 -0.818679 7.694140 5.319894 2.370691 7.614391 5.415564 2.397818 -0.011929 24.670654 2.028098 8.760635 -9.247328 1.128863 -0.000005 8.817321 6.102629 -30.194419 -51.451453 -1.888181 -0.000004 20.493942 -0.282505 0.000001 0.000001 0.000000 9.553559 16.065361 -5.227830 1.865433 -3.896820 6.975312 29.844594 4.433995 -52.358208 -0.000476 -67.804941 -0.001265 0.000003 -0.000002 0.000000 -9.553572 16.065355 -5.227834 3.117490 11.016026 6.410340 2.746875 -10.528286 18.765219 -0.000964 60.300721 0.001853 -12.105103 -20.126153 -37.042920 -18.447773 1.479921 8.654254 -2.333571 30.896016 26.191706 0.358647 -0.957167 41.078175 0.861203 -2.247033 21.320565 -0.000004 -0.000000 0.000004 -17.507797 -0.477692 -10.003077 3.014725 21.617492 31.981640 0.380070 -0.981265 42.345711 0.398165 -1.000713 43.390850 0.000000 -0.000000 0.000002 -2.492356 -4.446339 6.163475 0.927720 1.190515 -13.301992 -9.728851 -5.618110 18.694752 7.907720 -19.045009 0.722802 -0.000000 0.000000 -0.000000 13.655976 -7.135245 0.129694 -52.473133 3.026465 17.530539 82.309968 -9.327475 3.338026 -33.080843 4.479682 -13.447147 -0.000003 -15.192879 14.911594 -0.000033 -0.000002 -0.000020 -0.000001 -0.000001 16.883833 -0.000000 -0.000000 -0.000000 -13.655971 -7.135247 0.129690 -57.847160 9.892567 -38.877365 82.956568 -4.480327 3.357743 -15.839547 -9.565681 21.961367 0.000001 -15.192878 14.911588 -0.000032 -0.000005 -0.000001 0.000004 -0.000001 16.883825 -0.000001 0.000000 -0.000000 
0.085898 67.758621 -0.796842 8.672301 57.704143 -0.610877 -0.000003 10.763874 1.243517 8.001334 6.520959 -1.157642 7.793847 5.674818 1.989410 7.706522 5.776226 2.019008 -0.011924 24.670626 2.028099 8.794257 -9.220815 1.162709 0.000002 8.817314 6.102613 -30.020573 -51.620261 -1.257854 -0.000001 20.493881 -0.282511 0.000001 0.000001 -0.000000 9.553568 16.065355 -5.227830 1.914522 -4.078081 7.190512 29.815876 3.989619 -51.730449 -0.000383 -67.893023 -0.001131 -0.000001 -0.000002 -0.000001 -9.553579 16.065355 -5.227826 3.158811 11.162857 5.935444 3.716930 -10.895007 19.172739 -0.000941 60.443267 0.001848 -13.434911 -20.033508 -37.282697 -18.447773 1.479894 8.654260 -2.333571 30.896016 26.191714 0.358652 -0.957168 41.078175 0.861203 -2.247032 21.320567 -0.000004 -0.000002 0.000001 -17.507782 -0.477695 -10.003078 3.014727 21.617494 31.981637 0.380076 -0.981257 42.345711 0.398164 -1.000712 43.390850 -0.000001 0.000001 -0.000001 -2.492349 -4.446335 6.163487 0.927716 1.190505 -13.301987 -9.728851 -5.618106 18.694749 7.907718 -19.045013 0.722807 0.000001 -0.000001 -0.000002 13.655975 -7.135226 0.129693 -52.097377 3.739637 17.849207 82.505762 -8.882763 3.299931 -33.520967 4.598509 -13.629461 -0.000001 -15.192877 14.911590 -0.000031 -0.000012 -0.000002 0.000002 -0.000001 16.883818 -0.000000 0.000003 0.000000 -13.655974 -7.135239 0.129691 -58.496547 10.704443 -38.388375 82.999974 -4.711111 3.228323 -15.502154 -8.803733 21.858876 -0.000009 -15.192880 14.911588 -0.000034 -0.000003 0.000000 -0.000003 -0.000001 16.883829 -0.000001 -0.000000 -0.000000 
0.186583 67.685730 -0.888360 8.040422 56.368356 0.429785 -0.000001 10.763883 1.243515 8.073475 6.831113 -1.494152 7.916805 5.965136 1.607077 7.822308 6.073610 1.638031 -0.011925 24.670637 2.028105 8.844887 -9.158092 1.189126 0.000004 8.817325 6.102627 -29.373628 -51.648996 -0.376655 -0.000002 20.493927 -0.282503 0.000000 -0.000001 0.000000 9.553576 16.065363 -5.227828 2.113081 -4.689181 7.046710 28.980882 3.822515 -50.353801 -0.000339 -68.589415 -0.001130 -0.000002 0.000001 0.000003 -9.553570 16.065407 -5.227821 3.214346 11.362786 5.376394 4.443687 -11.626407 19.025183 -0.001038 61.199663 0.001911 -19.447422 -19.680075 -37.493367 -18.447773 1.479936 8.654257 -2.333567 30.896023 26.191713 0.358648 -0.957168 41.078158 0.861199 -2.247034 21.320565 0.000004 0.000002 0.000002 -17.507790 -0.477704 -10.003076 3.014718 21.617486 31.981647 0.380077 -0.981258 42.345711 0.398161 -1.000716 43.390839 -0.000004 -0.000002 0.000002 -2.492348 -4.446340 6.163480 0.927724 1.190511 -13.301995 -9.728845 -5.618110 18.694755 7.907722 -19.045013 0.722804 -0.000001 -0.000000 0.000005 13.655978 -7.135227 0.129695 -51.226009 4.663135 18.049931 82.615612 -8.259755 3.318985 -34.112167 4.792567 -13.929945 -0.000003 -15.192875 14.911594 -0.000033 -0.000007 0.000005 -0.000001 -0.000001 16.883821 -0.000000 0.000000 0.000000 -13.655968 -7.135231 0.129696 -58.934451 11.688884 -37.830263 83.038161 -5.163503 3.028096 -15.131902 -7.865433 21.868944 0.000001 -15.192878 14.911589 -0.000014 -0.000010 0.000004 0.000003 -0.000001 16.883833 -0.000001 0.000003 -0.000000 
0.395651 67.757309 -0.990635 6.960233 54.691295 1.859993 0.000001 10.763874 1.243517 8.167457 6.940733 -1.726453 8.047350 6.067970 1.299432 7.949208 6.182803 1.329594 -0.011925 24.670609 2.028099 8.903796 -9.046113 1.242218 -0.000000 8.817324 6.102613 -28.169609 -51.394281 0.698969 -0.000000 20.493942 -0.282507 0.000001 0.000001 -0.000000 9.553564 16.065353 -5.227832 2.448273 -5.722777 6.560980 26.928782 4.009431 -48.114503 -0.000320 -70.155100 -0.001104 0.000004 0.000000 0.000002 -9.553571 16.065382 -5.227831 3.256680 11.488915 4.820600 4.068887 -12.573001 18.094197 -0.001052 61.948982 0.001927 -31.318945 -17.839267 -38.011208 -18.447767 1.479901 8.654257 -2.333567 30.896016 26.191713 0.358651 -0.957159 41.078178 0.861197 -2.247032 21.320557 -0.000002 0.000001 -0.000002 -17.507812 -0.477692 -10.003070 3.014724 21.617491 31.981644 0.380073 -0.981253 42.345718 0.398158 -1.000713 43.390836 -0.000000 0.000000 -0.000001 -2.492348 -4.446309 6.163482 0.927719 1.190515 -13.301982 -9.728851 -5.618117 18.694740 7.907721 -19.045001 0.722806 -0.000002 0.000002 0.000001 13.655978 -7.135231 0.129694 -49.541708 5.524476 17.873871 82.411369 -7.169430 3.507290 -34.876298 5.139994 -14.605019 0.000002 -15.192878 14.911588 -0.000033 0.000014 0.000002 -0.000004 -0.000001 16.883821 -0.000000 0.000002 -0.000000 -13.655975 -7.135241 0.129698 -59.078315 12.525553 -37.221867 82.722012 -5.522801 2.840106 -14.677839 -6.769642 21.704270 -0.000005 -15.192879 14.911586 -0.000027 -0.000012 -0.000001 0.000000 -0.000001 16.883825 -0.000001 0.000002 -0.000000 
